<svg id="Layer_2" data-name="Layer 2" xmlns="http://www.w3.org/2000/svg" viewBox="0 0 1059.802 667.745" style="width: 100%; height: 100%;">
  <g id="Layer_2-2" data-name="Layer 2">
    <g>
      <g>
        <rect x="919.645" y="434.12" width="2" height="225.684" transform="translate(-54.037 103.397) rotate(-6.245)" fill="#292a2e"></rect>
        <rect x="907.856" y="591.462" width="120.09" height="2" transform="translate(281.104 1495.874) rotate(-84.228)" fill="#292a2e"></rect>
        <rect x="904.098" y="637.662" width="89.616" height="29.083" fill="#292a2e"></rect>
        <rect x="904.098" y="637.662" width="89.616" height="29.083" fill="#fff" opacity=".2"></rect>
        <ellipse cx="998.924" cy="547.386" rx="51.126" ry="61.09" transform="translate(-39.064 1016.494) rotate(-53.042)" fill="#12372A"></ellipse>
        <ellipse cx="998.924" cy="547.386" rx="51.126" ry="61.09" transform="translate(-39.064 1016.494) rotate(-53.042)" fill="#fff" opacity=".2"></ellipse>
        <path d="m1047.736,584.115c-1.155,1.539-2.399,2.98-3.723,4.314-18.687,11.939-46.271,10.06-68.154-6.408-26.957-20.281-35.048-55.015-18.07-77.578,1.155-1.539,2.398-2.971,3.714-4.314,18.697-11.948,46.271-10.06,68.163,6.399,26.957,20.289,35.048,55.024,18.07,77.587Z" fill="#fff" opacity=".5"></path>
        <ellipse cx="890.531" cy="456.86" rx="61.09" ry="52.607" transform="translate(-93.571 639.372) rotate(-37.665)" fill="#12372A"></ellipse>
        <path d="m914.212,492.593c-20.683,15.976-46.969,18.41-66.024,8.01-2.175-1.915-4.189-4.054-6.015-6.417-17.757-22.992-10.498-58.354,16.208-78.965,20.684-15.967,46.97-18.41,66.015-8.019,2.184,1.915,4.197,4.063,6.023,6.426,17.757,22.992,10.498,58.354-16.208,78.965Z" fill="#fff" opacity=".2"></path>
      </g>
      <g>
        <g>
          <circle cx="283.406" cy="129.562" r="97.275" fill="#f4f4f4"></circle>
          <g fill="none" opacity=".05">
            <circle cx="283.406" cy="129.562" r="77.115" fill="#292a2e"></circle>
          </g>
        </g>
        <path d="m258.165,157.106l7.194-11.154c5.702,4.369,10.689,6.597,15.992,6.597,6.358,0,9.154-2.637,9.154-7.742,0-11.54-29.609-11.332-29.609-31.573,0-13.011,9.013-21.299,23.226-21.299,9.595,0,16.114,3.959,21.353,9.516l-8.25,9.451c-4.077-3.708-7.534-5.661-12.217-5.661-5.396,0-8.324,2.176-8.324,7.215,0,10.696,29.609,9.762,29.609,31.203,0,12.88-8.524,22.197-24.942,22.197-7.085,0-16.852-3.008-23.186-8.748Zm19.728-76.165h10.942v16.154h-10.942v-16.154Zm0,78.18h10.942v17.725h-10.942v-17.725Z" fill="#fff"></path>
      </g>
      <g>
        <g>
          <circle cx="962.528" cy="97.275" r="97.275" fill="#f4f4f4"></circle>
          <g fill="none" opacity=".05">
            <circle cx="962.528" cy="97.275" r="77.115" fill="#292a2e"></circle>
          </g>
        </g>
        <path d="m937.287,124.819l7.194-11.154c5.702,4.369,10.689,6.597,15.992,6.597,6.358,0,9.154-2.637,9.154-7.742,0-11.54-29.609-11.332-29.609-31.573,0-13.011,9.013-21.299,23.226-21.299,9.595,0,16.114,3.959,21.353,9.516l-8.25,9.451c-4.077-3.708-7.534-5.661-12.217-5.661-5.396,0-8.324,2.176-8.324,7.215,0,10.696,29.609,9.762,29.609,31.203,0,12.88-8.524,22.197-24.942,22.197-7.085,0-16.852-3.008-23.186-8.748Zm19.728-76.165h10.942v16.154h-10.942v-16.154Zm0,78.18h10.942v17.725h-10.942v-17.725Z" fill="#fff"></path>
      </g>
      <rect x="174.814" y="50.064" width="734.688" height="553.975" rx="30" ry="30" fill="#fff"></rect>
      <path d="m879.502,605.038H204.814c-17.093,0-31-13.907-31-31V80.064c0-17.093,13.907-31,31-31h674.688c17.094,0,31,13.907,31,31v493.975c0,17.093-13.906,31-31,31ZM204.814,51.064c-15.991,0-29,13.009-29,29v493.975c0,15.991,13.009,29,29,29h674.688c15.99,0,29-13.009,29-29V80.064c0-15.991-13.01-29-29-29H204.814Z" fill="#292a2e"></path>
      <g>
        <g>
          <path d="m305.955,320.821c-.768,0-1.535-.293-2.121-.879l-14-14c-1.172-1.171-1.172-3.071,0-4.242,1.172-1.172,3.07-1.172,4.242,0l14,14c1.172,1.171,1.172,3.071,0,4.242-.586.586-1.354.879-2.121.879Z" fill="#12372A"></path>
          <path d="m291.955,320.821c-.768,0-1.535-.293-2.121-.879-1.172-1.171-1.172-3.071,0-4.242l14-14c1.172-1.172,3.07-1.172,4.242,0,1.172,1.171,1.172,3.071,0,4.242l-14,14c-.586.586-1.354.879-2.121.879Z" fill="#12372A"></path>
        </g>
        <rect x="712.101" y="451.16" width="10" height="26.829" transform="translate(4.663 936.268) rotate(-66.445)" fill="#12372A"></rect>
        <rect x="692.12" y="214.98" width="26.829" height="10" transform="translate(-14.202 387.757) rotate(-30.439)" fill="#12372A"></rect>
        <rect x="335.321" y="227.641" width="10" height="26.83" transform="translate(5.696 489.958) rotate(-71.953)" fill="#12372A"></rect>
        <rect x="337.71" y="398.345" width="26.829" height="10" transform="translate(-167.828 274.256) rotate(-34.991)" fill="#12372A"></rect>
        <rect x="769.608" y="349.446" width="10" height="26.243" transform="translate(342.46 1100.619) rotate(-84.733)" fill="#12372A"></rect>
        <g>
          <path d="m788.609,284.752c-.768,0-1.535-.293-2.121-.879l-14-14c-1.172-1.171-1.172-3.071,0-4.242,1.172-1.172,3.07-1.172,4.242,0l14,14c1.172,1.171,1.172,3.071,0,4.242-.586.586-1.354.879-2.121.879Z" fill="#12372A"></path>
          <path d="m774.609,284.752c-.768,0-1.535-.293-2.121-.879-1.172-1.171-1.172-3.071,0-4.242l14-14c1.172-1.172,3.07-1.172,4.242,0,1.172,1.171,1.172,3.071,0,4.242l-14,14c-.586.586-1.354.879-2.121.879Z" fill="#12372A"></path>
        </g>
      </g>
      <circle cx="542.158" cy="341.56" r="159.529" fill="#12372A" opacity=".4"></circle>
      <circle cx="542.158" cy="341.56" r="111.567" fill="#12372A"></circle>
      <path d="m519.345,389.423c-1.709,0-3.414-.67-4.688-1.997l-35.512-36.957c-2.487-2.588-2.405-6.703.183-9.19,2.59-2.487,6.702-2.406,9.19.184l31.16,32.428,81.464-73.08c2.672-2.397,6.781-2.175,9.18.498,2.396,2.672,2.174,6.782-.498,9.179l-86.14,77.274c-1.239,1.112-2.792,1.662-4.34,1.662Z" fill="#fff"></path>
      <path d="m909.502,80.06v30.188H174.817v-30.188c0-16.569,13.431-30,30-30h674.684c16.569,0,30,13.431,30,30Z" fill="#292a2e"></path>
      <g>
        <path d="m37.495,607.657c-11.469,0-22.402-5.265-29.552-14.422-7.99-10.232-10.119-23.87-5.627-36.051,2.122-5.755,56.525-146.193,65.995-170.602l65.47,38.096c-5.325,13.725-24.618,65.745-40.118,107.651l25.75-2.799,8.105,68.561-85.966,9.346c-1.356.147-2.711.22-4.058.22Z" fill="#436850"></path>
        <polygon points="82.435 609.827 71 666.745 293.099 666.745 280.306 608.745 82.435 609.827" fill="#262626"></polygon>
        <path id="h_3_sk" d="m251.64,357.38c-.23-.03-6.53,23.68-55.7,19.99-34.04-2.55-42.34-25.72-43.12-25.72,3.67-.78,9.63-1.59,11.26-2.46,5.36-2.88,9.265-6.386,11.23-13.91,1.537-5.884,2.32-28.536,2.32-39.9l52.38,11.77c-.73,12.82-5.84,42.54,12.07,47.8,2.98.87,6.19,1.67,9.56,2.43Z" fill="#ff9e85"></path>
        <path d="m228.197,332.354c-20.65,1.629-47.176-7.089-52.214-34.639l-4.546-24.859c-5.039-27.55,5.347-52.53,31.287-57.274h0c25.94-4.744,49.413,14.044,54.451,41.594l2.013,11.005c1.933,10.571,5.852,61.266-30.99,64.173Z" fill="#ff9e85"></path>
        <path id="b_1_b" d="m130.456,355.464c-18.556,1.377-37.477,3.386-51.131,16.027-16.444,15.224-19.423,33.943-8.933,85.457,9.026,44.325,5.446,63.694,11.484,145.486.178,2.41.559,7.393.559,7.393l198.502-.329s18.598-108.517,28.869-158.568c7.809-38.051,28.32-84.244-58.164-93.553-.23-.025-69.593-5.74-121.187-1.912Z" fill="#436850"></path>
        <path d="m82.435,610.328c-.268,0-.489-.211-.5-.481l-6.221-161.475c-.01-.276.205-.508.48-.519.305-.018.509.205.52.48l6.221,161.475c.01.276-.205.508-.48.519-.007,0-.014,0-.02,0Z" fill="#0c0c0c"></path>
        <g>
          <path d="m400.948,413.118l13.946-31.283c1.284-2.88,4.771-4.089,7.591-2.526,2.5,1.385,3.358,4.586,2.194,7.196l-2.99,6.708,19.086-16.778c2.09-1.902,5.87-2.9,7.85-.416,1.733,1.903,1.852,4.702.445,6.731.021.018.047.029.063.052.015.016.02.037.032.054l3.222-2.934c2.485-2.262,6.5-1.782,8.328,1.266,1.339,2.232.744,5.131-1.18,6.884l-1.371,1.249c.018.057.026.115.023.174,2.251-1.262,5.182-.783,6.887,1.355,1.809,2.266,1.358,5.602-.786,7.554l-3.405,3.1c.155-.017.315.031.43.157.066.075.096.164.11.256,2.234-.542,4.73.354,6.028,2.634,1.264,2.22.64,5.048-1.248,6.768l-28.736,26.161c-8.224,7.487-20.168,9.235-30.192,4.42h0c-8.786-4.221-12.619-14.665-8.651-23.567l2.324-5.213Z" fill="#ff9e85"></path>
          <g fill="none" opacity=".2">
            <path d="m430.26,399.45c.184.199.494.216.698.036l18.131-15.979c.207-.183.227-.498.044-.706-.156-.208-.499-.227-.706-.044l-18.131,15.979c-.207.183-.227.498-.044.706l.008.009Z" fill="#0c0c0c"></path>
          </g>
          <g fill="none" opacity=".2">
            <path d="m437.087,407.641c.184.199.494.216.698.036l20.234-17.833c.207-.183.227-.498.044-.706-.168-.188-.499-.227-.706-.044l-20.234,17.833c-.207.183-.227.498-.044.706l.008.009Z" fill="#0c0c0c"></path>
          </g>
          <g fill="none" opacity=".2">
            <path d="m444.43,416.554c.184.199.494.216.698.036l16.14-14.224c.207-.183.227-.498.044-.706-.189-.205-.499-.227-.706-.044l-16.14,14.224c-.207.183-.227.498-.044.706l.008.009Z" fill="#0c0c0c"></path>
          </g>
        </g>
        <path d="m247.344,307.06c-3.707-18.624-5.406-31.049-5.209-44.158,5.221-9.158,3.848-19.668,2.661-24.21,5.117,2.791,7.257,3.096,12.073,3.096,0,0-8.634-34.651-37.98-43.975-5.396-2.1-19.174-4.753-37.468-2.244-15.56,2.134-53.916,13.768-59.395,56.95h-.002s0,.012-.001.025c-.181,1.432-3.864,41.218-11.206,60.307-9.87,25.661-23.727,33.634-23.376,63.242.452,38.084,70.466,43.153,112.696,40.304,42.23-2.849,65.803-16.734,66.109-44.18.342-30.751-11.484-27.895-18.9-65.156Z" fill="#0a0a0a"></path>
        <path d="m247.356,291.449c-7.883,1.442-15.816-5.823-17.257-13.706-1.442-7.883,4.154-13.399,12.037-14.841l5.221,28.547Z" fill="#ff9e85"></path>
        <path d="m332.143,601.98c-1.545,0-3.1-.096-4.658-.291-14.452-1.806-26.551-11.815-31.031-25.673l-52.102-161.134,71.362-23.074,27.404,84.754,47.353-75.305,63.491,39.923-90.082,143.26c-6.917,11-18.959,17.54-31.737,17.54Z" fill="#436850"></path>
        <path d="m290.101,557.491c-.03,0-.061-.002-.092-.008-.271-.05-.451-.311-.401-.583l17.711-96.142c.051-.272.308-.454.583-.401.271.05.451.311.401.583l-17.711,96.142c-.045.241-.255.409-.491.409Z" fill="#0c0c0c"></path>
        <path d="m349.489,499.256c-.223,0-.426-.149-.484-.375l-5.899-22.726c-.069-.267.092-.54.358-.609.271-.071.541.092.61.358l5.899,22.726c.069.267-.092.54-.358.609-.042.011-.085.016-.126.016Z" fill="#0c0c0c"></path>
      </g>
      <path d="m22.765,667.745h999.64c.552,0,1-.448,1-1,0-.552-.448-1-1-1H22.765c-.552,0-1,.448-1,1,0,.552.448,1,1,1Z" fill="#292a2e"></path>
      <g>
        <rect x="769.702" y="170.08" width="227.9" height="161.956" rx="18.278" ry="18.278" transform="translate(1767.303 502.116) rotate(-180)" fill="#292a2e"></rect>
        <g>
          <rect x="790.146" y="192.642" width="38.848" height="28.871" rx="7.478" ry="7.478" fill="#fff"></rect>
          <path d="m828.994,195.844v6.775h-13.162l-2.123-2.123v-7.855h12.082c1.769,0,3.202,1.434,3.202,3.202Z" fill="#12372A"></path>
          <path d="m828.994,211.535v6.775c0,1.769-1.434,3.202-3.202,3.202h-12.082v-8.067l2.123-1.91h13.162Z" fill="#12372A"></path>
          <path d="m805.218,192.642v7.855l-1.911,2.123h-13.162v-6.775c0-1.769,1.434-3.202,3.202-3.202h11.87Z" fill="#12372A"></path>
          <path d="m805.218,213.445v8.067h-11.87c-1.769,0-3.202-1.434-3.202-3.202v-6.775h13.162l1.911,1.91Z" fill="#12372A"></path>
        </g>
        <path d="m979.89,299.879c0,9.341-7.642,16.983-16.983,16.983-4.033,0-7.642-1.486-10.614-3.821-3.821-3.184-6.368-7.855-6.368-13.162s2.547-10.19,6.368-13.162c2.972-2.335,6.581-3.821,10.614-3.821,9.34,0,16.983,7.642,16.983,16.983Z" fill="#fff"></path>
        <path d="m945.924,313.041c-2.972,2.335-6.581,3.821-10.614,3.821-9.34,0-16.983-7.642-16.983-16.983s7.642-16.983,16.983-16.983c4.033,0,7.642,1.486,10.614,3.821-3.821,3.184-5.529,7.855-5.529,13.162s1.708,10.19,5.529,13.162Z" fill="#12372A"></path>
        <rect x="790.146" y="244.809" width="40.114" height="6.249" rx="3.124" ry="3.124" fill="#fff"></rect>
        <rect x="840.023" y="244.809" width="40.114" height="6.249" rx="3.124" ry="3.124" fill="#fff"></rect>
        <rect x="889.899" y="244.809" width="40.114" height="6.249" rx="3.124" ry="3.124" fill="#fff"></rect>
        <rect x="939.775" y="244.809" width="40.114" height="6.249" rx="3.124" ry="3.124" fill="#fff"></rect>
      </g>
    </g>
  </g>
</svg>