<svg xmlns="http://www.w3.org/2000/svg" viewBox="0 0 48 48"><defs><style>.cls-1{fill:#31363F;}</style></defs><title>Asset 451</title><g id="Layer_2" data-name="Layer 2"><g id="_1" data-name="1"><path class="cls-1" d="M10,35c-2.76,0-5-2.69-5-6s2.24-6,5-6,5,2.69,5,6S12.76,35,10,35Zm0-10c-1.65,0-3,1.79-3,4s1.35,4,3,4,3-1.79,3-4S11.65,25,10,25Z"/><rect class="cls-1" x="4" y="39" width="2" height="9"/><path class="cls-1" d="M20,48H18V38a3,3,0,0,0-3-3H5a3,3,0,0,0-3,3V48H0V38a5,5,0,0,1,5-5H15a5,5,0,0,1,5,5Z"/><rect class="cls-1" x="14" y="39" width="2" height="9"/><rect class="cls-1" x="9" y="42" width="2" height="2"/><rect class="cls-1" x="9" y="46" width="2" height="2"/><rect class="cls-1" x="9" y="38" width="2" height="2"/><path class="cls-1" d="M29,38H22V36h7A17,17,0,1,0,12,19v2H10V19A19,19,0,1,1,29,38Z"/><path class="cls-1" d="M29,33A14,14,0,1,1,43,19,14,14,0,0,1,29,33ZM29,7A12,12,0,1,0,41,19,12,12,0,0,0,29,7Z"/><path class="cls-1" d="M32.22,24.62l-4-5a1,1,0,0,1,.07-1.33l7-7,1.42,1.42-6.37,6.36,3.44,4.31Z"/><rect class="cls-1" x="19" y="18" width="2" height="2"/><rect class="cls-1" x="28" y="27" width="2" height="2"/><rect class="cls-1" x="28" y="9" width="2" height="2"/><rect class="cls-1" x="37" y="18" width="2" height="2"/></g></g></svg>