<?xml version="1.0" encoding="UTF-8"?>
<!DOCTYPE svg PUBLIC "-//W3C//DTD SVG 1.1//EN" "http://www.w3.org/Graphics/SVG/1.1/DTD/svg11.dtd">
<!-- Creator: CorelDRAW -->
<svg xmlns="http://www.w3.org/2000/svg" xml:space="preserve" width="2048px" height="2048px" style="shape-rendering:geometricPrecision; text-rendering:geometricPrecision; image-rendering:optimizeQuality; fill-rule:evenodd; clip-rule:evenodd"
viewBox="0 0 2048 2048"
 xmlns:xlink="http://www.w3.org/1999/xlink">
 <defs>
  <style type="text/css">
   <![CDATA[
    .fil2 {fill:none}
    .fil0 {fill:#31363F}
    .fil1 {fill:#31363F;fill-rule:nonzero}
   ]]>
  </style>
 </defs>
 <g id="Layer_x0020_1">
  <metadata id="CorelCorpID_0Corel-Layer"/>
  <g id="_244482640">
   <path id="_244484224" class="fil0" d="M1094.26 1026.38l132.912 132.912c18.7394,18.7382 18.7394,49.1374 0,67.8756 -18.7382,18.7394 -49.1374,18.7394 -67.8756,0l-132.912 -132.912c-18.7394,-18.7382 -18.7394,-49.1374 0,-67.8756 18.7382,-18.7394 49.1374,-18.7394 67.8756,0z"/>
   <path id="_244484464" class="fil1" d="M1130.76 1210.45l82.6619 -82.6619c14.1662,-14.1638 32.8004,-21.248 51.4087,-21.248 18.6095,0 37.2425,7.08426 51.4063,21.248l454.513 454.513c14.1638,14.1638 21.248,32.7992 21.248,51.4075 0,18.6071 -7.08426,37.2425 -21.248,51.4063l-85.6394 85.6394c-14.165,14.165 -32.7992,21.248 -51.4063,21.248 -18.6083,0 -37.2437,-7.08426 -51.4075,-21.248l-451.537 -451.536c-14.9823,-14.9847 -22.4752,-34.6973 -22.4752,-54.3851 0,-19.6866 7.49292,-39.4016 22.4752,-54.3839z"/>
   <path id="_244483264" class="fil0" d="M740.304 255.999c267.475,0 484.304,216.829 484.304,484.304 0,267.475 -216.829,484.304 -484.304,484.304 -267.475,0 -484.304,-216.829 -484.304,-484.304 0,-267.475 216.829,-484.304 484.304,-484.304zm0 96.0001c214.455,0 388.304,173.849 388.304,388.304 0,214.455 -173.849,388.304 -388.304,388.304 -214.455,0 -388.304,-173.849 -388.304,-388.304 0,-214.455 173.849,-388.304 388.304,-388.304z"/>
   <g>
    <path id="_244483552" class="fil1" d="M740.303 517.409c61.5461,0 117.271,24.952 157.606,65.2878 40.3359,40.3359 65.2878,96.0603 65.2878,157.606 0,61.5461 -24.952,117.271 -65.2878,157.606 -40.3359,40.3359 -96.0603,65.2878 -157.606,65.2878 -61.5449,0 -117.269,-24.952 -157.606,-65.2878 -40.3359,-40.3359 -65.2878,-96.0603 -65.2878,-157.606 0,-61.5461 24.952,-117.271 65.2878,-157.606 40.337,-40.3359 96.0615,-65.2878 157.606,-65.2878zm90.065 132.829c-23.0445,-23.0457 -54.8894,-37.3016 -90.065,-37.3016 -35.1744,0 -67.0193,14.2559 -90.065,37.3016 -23.0457,23.0445 -37.3016,54.8894 -37.3016,90.065 0,35.1756 14.2559,67.0205 37.3016,90.065 23.0457,23.0457 54.8906,37.3016 90.065,37.3016 35.1756,0 67.0205,-14.2559 90.065,-37.3016 23.0457,-23.0445 37.3016,-54.8894 37.3016,-90.065 0,-35.1756 -14.2559,-67.0205 -37.3016,-90.065z"/>
    <g>
     <polygon id="_244482976" class="fil0" points="699.787,437.803 780.818,437.803 805.126,565.171 675.48,565.171 "/>
     <polygon id="_244483528" class="fil0" points="699.787,1042.8 780.818,1042.8 805.126,915.435 675.48,915.435 "/>
    </g>
    <g>
     <polygon id="_244483360" class="fil0" points="925.555,497.755 982.853,555.052 909.977,662.302 818.304,570.63 "/>
     <polygon id="_244483624" class="fil0" points="497.755,925.555 555.051,982.853 662.302,909.977 570.629,818.304 "/>
    </g>
    <g>
     <polygon id="_244482592" class="fil0" points="1042.8,699.788 1042.8,780.819 915.435,805.127 915.435,675.481 "/>
     <polygon id="_244482832" class="fil0" points="437.803,699.788 437.803,780.819 565.171,805.127 565.171,675.481 "/>
    </g>
    <g>
     <polygon id="_244482688" class="fil0" points="982.853,925.555 925.555,982.853 818.305,909.977 909.977,818.305 "/>
     <polygon id="_244482472" class="fil0" points="555.052,497.755 497.755,555.052 570.63,662.304 662.304,570.63 "/>
    </g>
   </g>
  </g>
 </g>
 <rect class="fil2" width="2048" height="2048"/>
</svg>
