<?xml version="1.0" encoding="UTF-8"?>
<!DOCTYPE svg PUBLIC "-//W3C//DTD SVG 1.1//EN" "http://www.w3.org/Graphics/SVG/1.1/DTD/svg11.dtd">
<!-- Creator: CorelDRAW -->
<svg xmlns="http://www.w3.org/2000/svg" xml:space="preserve" width="2048px" height="2048px" style="shape-rendering:geometricPrecision; text-rendering:geometricPrecision; image-rendering:optimizeQuality; fill-rule:evenodd; clip-rule:evenodd"
viewBox="0 0 2048 2048"
 xmlns:xlink="http://www.w3.org/1999/xlink">
 <defs>
  <style type="text/css">
   <![CDATA[
    .fil0 {fill:none}
    .fil1 {fill:#31363F;fill-rule:nonzero}
   ]]>
  </style>
 </defs>
 <g id="Layer_x0020_1">
  <metadata id="CorelCorpID_0Corel-Layer"/>
  <rect class="fil0" x="-0.000588025" y="-0.000588025" width="2048" height="2048"/>
  <g id="_344238064">
   <rect id="_344234896" class="fil0" x="256" y="255.998" width="1536" height="1536"/>
   <path id="_344236192" class="fil1" d="M1042.86 1637.27l-529.955 0c-31.917,0 -60.8918,-12.8209 -81.9296,-33.5457 -21.1807,-20.8642 -34.2839,-49.6453 -34.2839,-81.391l0 -1007.94c0,-28.7138 10.8201,-54.8044 25.8414,-74.53 18.874,-24.7878 46.0052,-40.4067 69.0615,-40.4067l172.758 0 37.8744 0 -7.65473 37.1114c-0.500788,2.43425 -0.900001,5.02559 -1.18228,7.77875 -0.205512,2.00788 -0.314173,4.56024 -0.314173,7.69607 0,19.8756 8.10827,37.4764 21.2126,50.1083 13.5957,13.1055 32.6292,21.0851 53.7957,21.0851l278.401 0c21.1866,0 40.2307,-8.00316 53.8099,-21.2575 13.0961,-12.7831 21.1937,-30.7087 21.1937,-51.2115l0.121654 0c0,-2.13425 -0.147638,-4.54607 -0.421654,-7.17993 -0.281103,-2.68819 -0.637796,-5.05985 -1.05591,-7.13977l-7.46103 -36.991 37.6796 0 129.997 0c40.2721,0 72.7217,11.2406 95.9859,29.5725 27.1819,21.4181 41.5512,51.7477 41.5512,85.3642l0 641.076c-20.1957,-4.47756 -40.9004,-7.11615 -61.891,-7.82363l0 -633.252c0,-14.4992 -6.17599,-27.5634 -17.8595,-36.7701 -12.8032,-10.089 -32.2063,-16.2744 -57.7867,-16.2744l-97.3702 0c-2.56536,33.4937 -17.2323,62.9906 -39.6508,84.8729 -24.8551,24.2599 -59.152,38.9067 -96.8422,38.9067l-278.401 0c-37.5662,0 -71.765,-14.5654 -96.5883,-38.4933 -22.8154,-21.9957 -37.6583,-51.7359 -39.9874,-85.2863l-139.913 0c-4.70315,0 -12.5185,6.18071 -19.9843,15.9874 -7.57323,9.94253 -13.0264,22.9441 -13.0264,37.0571l0 1007.94c0,14.6386 5.98701,27.8563 15.6662,37.3902 9.81733,9.67205 23.4803,15.6543 38.6551,15.6543l506.056 0c5.91142,21.3874 13.9169,42.1111 23.8996,61.8922z"/>
   <path id="_344237488" class="fil1" d="M1015.53 397.168l-25.5295 0c-15.0177,0 -28.7221,-5.9256 -38.7355,-15.5008l0 -0.121654c-10.4445,-9.98977 -16.904,-23.7662 -16.904,-38.9433l0 -0.800788c0,-6.45591 -2.7,-12.2835 -7.06772,-16.4906l-0.0602363 0.0625985c-4.83426,-4.62166 -11.6433,-7.48347 -19.2803,-7.48347l-1.32402 0c-7.71851,0 -14.5205,2.81457 -19.2744,7.363 -4.40197,4.21063 -7.12678,10.0618 -7.12678,16.5496l0 0.791339c0,15.1831 -6.46063,28.9583 -16.9063,38.9492 -10.0913,9.65316 -23.8063,15.626 -38.7402,15.626l0 -0.120473 -25.5201 -0.0011811 0 0.120473c-5.3941,0 -10.1752,1.99252 -13.539,5.20985 -2.93268,2.80512 -4.74922,6.67205 -4.74922,10.9323l0 0.955513c0,4.26024 1.81654,8.12599 4.74922,10.9311 3.36378,3.21851 8.14489,5.20985 13.539,5.20985l216.469 0c5.47559,0 10.2473,-1.94528 13.5319,-5.08701 2.93032,-2.80394 4.74567,-6.71103 4.74567,-11.0539l0 -0.955513c0,-4.34174 -1.81536,-8.25001 -4.74567,-11.0551 -3.3626,-3.21614 -8.14134,-5.20748 -13.5319,-5.20748l0 0.120473zm-19.5331 -61.891l19.5331 0 0 0.120473c21.7937,0.0011811 41.6327,8.55355 56.0823,22.3748 14.8819,14.237 24.0874,33.8764 24.0874,55.5378l0 0.955513c0,21.6638 -9.2067,41.3008 -24.0874,55.5367 -14.5288,13.8992 -34.3713,22.4965 -56.0823,22.4965l-216.469 0c-21.7949,0 -41.6363,-8.55237 -56.0894,-22.376 -14.8819,-14.2347 -24.0898,-33.913 -24.0898,-55.6571l0 -0.955513c0,-21.7441 9.20788,-41.4237 24.0898,-55.6571 14.4532,-13.8236 34.2945,-22.376 56.0894,-22.376l0 0.120473 19.5213 0.0011811c1.63583,-21.2599 11.3492,-40.4008 26.2217,-54.6284 15.998,-15.3036 37.8709,-24.7725 61.8249,-24.7725l1.32402 0c24.0378,0 45.9071,9.42284 61.8308,24.6508l0 0.121654c14.8441,14.1992 24.5492,33.2953 26.2134,54.5067z"/>
   <path id="_344237848" class="fil1" d="M1223.15 1460.67c-12.0827,-12.0827 -31.6748,-12.0827 -43.7587,0 -12.0827,12.0827 -12.0827,31.676 0,43.7587l92.8359 92.8359 -0.00236221 0.00236221c12.0839,12.0839 31.6796,12.0839 43.7634,0l0.17126 -0.175984 185.498 -185.498c12.0827,-12.0827 12.0827,-31.676 0,-43.7587 -12.0839,-12.0827 -31.676,-12.0827 -43.7587,0l-163.792 163.792 -70.9571 -70.956z"/>
   <path id="_344238568" class="fil1" d="M644.259 739.86c-17.0894,0 -30.9461,13.8555 -30.9461,30.9461 0,17.0906 13.8567,30.9461 30.9461,30.9461l526.068 0c17.0906,0 30.9461,-13.8555 30.9461,-30.9461 0,-17.0906 -13.8555,-30.9461 -30.9461,-30.9461l-526.068 0z"/>
   <path id="_344237392" class="fil1" d="M644.259 956.479c-17.0894,0 -30.9461,13.8555 -30.9461,30.9461 0,17.0894 13.8567,30.9449 30.9461,30.9449l526.068 0c17.0906,0 30.9461,-13.8555 30.9461,-30.9449 0,-17.0906 -13.8555,-30.9461 -30.9461,-30.9461l-526.068 0z"/>
   <path id="_344238424" class="fil1" d="M644.259 1173.1c-17.0894,0 -30.9461,13.8555 -30.9461,30.9461 0,17.0906 13.8567,30.9461 30.9461,30.9461l473.387 0c22.9193,-20.8016 48.339,-38.1733 75.5327,-51.8126 -5.65985,-6.19252 -13.8012,-10.0795 -22.852,-10.0795l-526.068 0z"/>
   <path id="_344237344" class="fil1" d="M644.259 1389.71c-17.0894,0 -30.9461,13.8567 -30.9461,30.9461 0,17.0906 13.8567,30.9461 30.9461,30.9461l364.166 0c2.09055,-21.0851 6.14528,-41.7933 12.0567,-61.8922l-376.223 0z"/>
   <path id="_344239240" class="fil1" d="M1344.51 1240.29c-67.6323,0 -128.86,27.4122 -173.175,71.7284 -44.3174,44.3174 -71.7284,105.547 -71.7284,173.178 0,67.6347 27.411,128.865 71.7272,173.183 44.315,44.3162 105.543,71.7296 173.176,71.7296 67.6335,0 128.861,-27.411 173.177,-71.7272 44.3174,-44.3174 71.7284,-105.546 71.7284,-173.176 0,-67.6359 -27.411,-128.867 -71.7272,-173.186 -44.315,-44.3162 -105.543,-71.7296 -173.178,-71.7296zm-216.933 27.9697c55.5189,-55.5201 132.217,-89.8619 216.933,-89.8619 84.7182,0 161.419,34.3429 216.937,89.8631 55.5201,55.5225 89.8607,132.226 89.8607,216.945 0,84.7135 -34.3406,161.413 -89.8619,216.934 -55.5189,55.5201 -132.219,89.8595 -216.936,89.8595 -84.7158,0 -161.415,-34.3418 -216.934,-89.8619 -55.5189,-55.5225 -89.8607,-132.223 -89.8607,-216.942 0,-84.7146 34.3406,-161.417 89.8619,-216.937z"/>
  </g>
 </g>
</svg>
