<svg id="Layer_2" data-name="Layer 2" xmlns="http://www.w3.org/2000/svg" viewBox="0 0 805.177 773.007" style="width: 100%; height: 100%;">
  <g id="Layer_2-2" data-name="Layer 2">
    <g>
      <path d="m126.601,773.007c-84.328,0-145.523-81.195-121.228-161.947,13.739-45.667,41.035-90.225,92.942-117.251,142.043-73.957,129.531-53.678,196.489-177.956,66.958-124.278,248.424-153.76,343.511-66.218,134.489,123.818,44.022,222.457,129.13,307.565.887.887,1.761,1.778,2.624,2.674,76.895,79.847,19.032,213.132-91.821,213.132H126.601Z" fill="#292a2e" opacity=".03"></path>
      <g>
        <path d="m486.571,334.729v-66.242s-316.568,0-316.568,0v66.241c0,72.826,49.183,134.154,116.144,152.603,10.085,2.778,17.032,12.007,17.032,22.468,0,10.462-6.948,19.691-17.032,22.469-66.962,18.448-116.144,79.778-116.144,152.603v66.242s316.568,0,316.568,0v-66.242c0-72.823-49.183-134.154-116.144-152.603-10.085-2.778-17.033-12.006-17.033-22.469,0-10.461,6.948-19.689,17.033-22.468,66.961-18.448,116.144-79.777,116.144-152.602" fill="#12372A"></path>
        <path d="m486.571,334.729v-66.242s-316.568,0-316.568,0v66.241c0,72.826,49.183,134.154,116.144,152.603,10.085,2.778,17.032,12.007,17.032,22.468,0,10.462-6.948,19.691-17.032,22.469-66.962,18.448-116.144,79.778-116.144,152.603v66.242s316.568,0,316.568,0v-66.242c0-72.823-49.183-134.154-116.144-152.603-10.085-2.778-17.033-12.006-17.033-22.469,0-10.461,6.948-19.689,17.033-22.468,66.961-18.448,116.144-79.777,116.144-152.602" fill="#fff" opacity=".8"></path>
        <path d="m487.571,752.112H169.004v-67.242c0-71.46,48.062-134.609,116.878-153.567,9.596-2.644,16.298-11.487,16.298-21.505s-6.702-18.86-16.298-21.503c-68.816-18.96-116.878-82.109-116.878-153.567v-67.241h318.567v67.242c0,71.458-48.062,134.607-116.878,153.565-9.597,2.644-16.299,11.487-16.299,21.504s6.702,18.861,16.299,21.505c68.816,18.959,116.878,82.109,116.878,153.567v67.242Zm-316.567-2h314.567v-65.242c0-70.561-47.458-132.917-115.409-151.639-10.461-2.882-17.768-12.518-17.768-23.433s7.307-20.55,17.768-23.432c67.951-18.721,115.409-81.076,115.409-151.638v-65.242H171.004v65.241c0,70.561,47.458,132.917,115.409,151.639,10.461,2.881,17.767,12.517,17.767,23.432s-7.306,20.551-17.767,23.433c-67.951,18.72-115.409,81.076-115.409,151.639v65.242Z" fill="#292a2e"></path>
        <path d="m504.962,256.429c0,3.331-1.352,6.342-3.534,8.53-2.12,2.114-5.033,3.454-8.253,3.521-.092.006-.178.006-.27.006H164.206c-.092,0-.178,0-.27-.006-6.533-.141-11.787-5.482-11.787-12.051,0-3.331,1.352-6.342,3.534-8.53,2.182-2.175,5.199-3.527,8.524-3.527h328.699c6.656,0,12.057,5.396,12.057,12.057Z" fill="#292a2e"></path>
        <path d="m333.879,639.993l.002-143.171c0-15.614,11.637-22.675,17.712-24.355,56.014-15.414,108.125-65.66,110.686-123.378.137-3.095-2.583-5.134-5.681-5.134H199.972c-3.098.003-5.818,2.039-5.681,5.134,2.561,57.717,54.672,107.963,110.686,123.378,7.927,2.193,17.716,11.907,17.716,24.714l-.002,142.822c0,10.298-3.879,19.046-11.161,26.328-6.014,6.014-96.561,84.78-96.561,84.78h226.632s-91.385-79.666-96.417-84.697c-7.282-7.282-11.305-16.123-11.305-26.421Z" fill="#fafafa"></path>
        <path d="m505.047,760.017c0,3.331-1.352,6.342-3.534,8.53-2.12,2.114-5.033,3.454-8.253,3.521-.092.006-.178.006-.27.006H164.291c-.092,0-.178,0-.27-.006-6.533-.141-11.787-5.482-11.787-12.051,0-3.331,1.352-6.342,3.534-8.53,2.182-2.175,5.199-3.527,8.524-3.527h328.699c6.656,0,12.057,5.396,12.057,12.057Z" fill="#292a2e"></path>
      </g>
      <g>
        <circle cx="586.641" cy="630.818" r="140.527" fill="#fff"></circle>
        <path d="m627.635,765.979c-74.528,22.604-153.551-19.639-176.155-94.167-22.604-74.528,19.639-153.55,94.167-176.154,74.528-22.604,153.55,19.639,176.154,94.167,22.604,74.528-19.639,153.55-94.167,176.154Zm-81.573-268.956c-73.775,22.376-115.592,100.6-93.216,174.376,22.376,73.775,100.601,115.592,174.376,93.216,73.775-22.376,115.592-100.6,93.216-174.376s-100.6-115.592-174.375-93.216Z" fill="#292a2e"></path>
        <circle cx="586.641" cy="630.818" r="123.722" fill="#12372A" opacity=".45"></circle>
        <circle cx="586.641" cy="630.818" r="7.439" fill="#292a2e"></circle>
        <path d="m678.348,680.424c-.175.053-.369.039-.543-.054l-91.5-48.924c-.232-.124-.377-.366-.377-.629l-.031-72.134c0-.393.319-.712.713-.713.394,0,.713.319.713.713l.031,71.707,91.123,48.723c.347.186.478.618.293.965-.093.174-.247.293-.422.346Z" fill="#292a2e"></path>
      </g>
      <g>
        <g>
          <path d="m214.06,429.098s-2.92,15.139-17.095,15.982c-14.174.844-11.101,12.135-11.101,12.135h54.166v-27.062s-25.971-1.056-25.971-1.056Z" fill="#12372A"></path>
          <path d="m244.964,383.565s4.062,14.873-8.284,21.887c-12.346,7.014-4.604,15.789-4.604,15.789l48.603-23.91-11.946-24.283-23.77,10.516Z" fill="#12372A"></path>
          <path d="m239.822,393.395l-36.623-138.18c-2.779-15.265,1.404-21.882,7.849-28.31,11.322-11.293,58.236-35.329,58.236-35.329l56.282-.154c14.923,0,29.595,14.716,29.595,29.639,0,14.923-15.171,27.579-30.095,27.579l-69.307,6.916,18.787,126.523-34.723,11.316Z" fill="#262626"></path>
          <polygon points="274.545 382.08 267.149 332.269 229.679 355.127 239.822 393.395 274.545 382.08" fill="#0c0c0c"></polygon>
          <path d="m283.039,219.538s-23.659,5.273-47.092,28.705c-14.207,14.207-13.042,39.917-10.911,89.365l23.273-34.375,25.526-46.038,9.204-37.657Z" fill="#0c0c0c"></path>
          <path d="m364.958,191.406l-38.222-.18-.015.503h-11.574s-28.99,26.678-52.332,43.488c-16.978,12.227-27.335,23.885-28.231,36.59-2.185,30.971-26.825,163.059-26.825,163.059l37.083,5.615,32.541-157.856s50.887-23.458,62.657-31.622c11.083-7.687,18.912-10.659,22.579-19.048,6.334-14.489,2.338-40.55,2.338-40.55Z" fill="#262626"></path>
        </g>
        <path d="m322.077,201.034l-62.007.821,34.783,20.774,28.943-14.946c3.261-1.75,1.982-6.699-1.718-6.65Z" fill="#292a2e"></path>
        <path d="m322.077,201.034l-62.007.821,34.783,20.774,28.943-14.946c3.261-1.75,1.982-6.699-1.718-6.65Z" fill="#fff" opacity=".2"></path>
        <path d="m260.425,89.794l-17.537,56.828-35.129,45.994,20.521,23.557,41.793-46.647c1.849-1.463,3.412-3.441,4.377-5.775l.651-1.576,24.138-58.405-38.814-13.975Z" fill="#12372A"></path>
        <g>
          <g>
            <path id="sk" d="m291.485,74.38c.11-.014,1.325,20.147,24.746,18.389,16.215-1.215,21.996-18.418,22.368-18.418-1.748-.372-3.909-.935-4.767-1.129-2.853-.643-6.414-2.997-7.237-7.955-.474-2.858.33-17.478.083-20.369l-24.889,5.555c.348,6.107,2.782,20.264-5.749,22.769-1.42.414-2.949.795-4.554,1.158Z" fill="#ff9e85"></path>
            <path id="sh" d="m301.439,67.437c.353-1.125.562-2.104.749-3.863.333-3.146.156-6.038-.163-8.985,5.028-.669,9.855-2.784,13.756-6.027.462,1.707,3.004,9.165,2.3,10.787-1.33,3.066-7.581,8.087-16.642,8.087Z" fill="#0c0c0c" opacity=".22"></path>
            <g>
              <path d="m286.639,28.945s-7.142-5.308-8.994-17.634c-1.434-9.544,7.425-3.42,7.425-3.42,0,0-.966-6.882,4.057-6.236,5.022.646,7.889,7.862,7.889,7.862" fill="#0c0c0c"></path>
              <path d="m315.076,2.267s24.924,2.484,16.174,36.297l-2.203.164-4.471.333" fill="#0c0c0c"></path>
              <path d="m306.157,63.063c9.812-.954,21.518-7.246,21.588-20.576l.063-12.028c.07-13.33-6.875-24.172-19.425-24.238h0c-12.551-.066-21.988,10.691-22.058,24.021l-.028,5.325c-.006,1.096.099,3.064.44,5.462.679,4.785,1.732,12.06,5.02,16.962,3.104,4.628,8.132,5.682,14.401,5.072Z" fill="#ff9e85"></path>
              <g>
                <g>
                  <circle id="e1_eye" cx="292.471" cy="37.542" r="1.368" transform="translate(-2.362 42.243) rotate(-8.228)" fill="#0a0a0a"></circle>
                  <g id="e1_n">
                    <path d="m301.752,46.049c.274-.04.479-.281.468-.563-.012-.302-.266-.537-.569-.525l-2.913.115.937-5.987c.046-.299-.158-.579-.457-.625-.298-.047-.578.157-.625.456l-1.04,6.644c-.025.162.023.326.132.449s.267.189.43.183l3.578-.141c.019,0,.039-.003.057-.005Z" fill="#0a0a0a"></path>
                  </g>
                  <g id="e1_m">
                    <path d="m303.276,52.093c4.911-.71,5.943-3.889,5.989-4.038.088-.289-.074-.595-.363-.684-.287-.089-.592.073-.683.36-.043.135-1.121,3.266-6.619,3.402-.309.006-.542.259-.534.561.008.302.259.541.561.534.593-.015,1.142-.062,1.649-.135Z" fill="#0a0a0a"></path>
                  </g>
                  <path id="e1_eb" d="m304.255,29.922c-.072.422,1.484.814,3.628,1.068s4.071.383,4.137-.146c.084-.668-1.673-1.96-3.817-2.214s-3.835.628-3.948,1.292Z" fill="#0a0a0a"></path>
                  <circle id="e1_eye-2" data-name="e1_eye" cx="306.769" cy="36.512" r="1.369" transform="translate(-2.068 44.279) rotate(-8.228)" fill="#0a0a0a"></circle>
                </g>
                <path id="e1_eb-2" data-name="e1_eb" d="m287.845,32.584c.106.415,1.686.142,3.749-.496s3.876-1.301,3.722-1.812c-.194-.645-2.111-1.191-4.174-.553s-3.464,2.208-3.298,2.861Z" fill="#0a0a0a"></path>
              </g>
              <path d="m326.944,46.545c3.814.02,6.927-4.044,6.947-7.858.02-3.814-3.061-5.934-6.875-5.954l-1.979,2.545-1.373,11.249,3.279.017Z" fill="#ff9e85"></path>
              <path d="m324.266,40.332c-.636.062-1.202-.398-1.267-1.034-.419-4.104-2.181-17.872-7.05-18.825-3.815-.747-13.01,4.724-21.578,3.157-3.748-.686-7.294.267-7.643,2.038-.138.701-2.545-9.341,3.259-17.019,4.621-6.113,19.88-7.944,26.842-6.003,19.279,5.375,10.98,30.912,10.98,30.912l-.695,5.586c-.067.539-.499.96-1.04,1.013l-1.809.176Z" fill="#0c0c0c"></path>
              <ellipse cx="298.098" cy="7.606" rx="7.686" ry="5.222" transform="translate(231.858 298.351) rotate(-78.627)" fill="#0c0c0c"></ellipse>
            </g>
          </g>
          <path d="m262.639,118.527c.734,8.624,5.939,62.426,6.644,73.048h95.633c.549-9.58,3.017-51.473,5.1-70.207,1.989-17.877,4.777-26.013,2.486-31.568-4.04-9.798-16.902-14.174-25.611-15.353-5.318-.72-13.317-1.236-13.317-1.236,0,0-.677,13.7-16.826,14.463-21.983,1.037-20.515-14.463-20.624-14.463-3.561,0-22.947,2.59-27.794,5.749-6.846,4.462-8.87,10.543-8.95,16.13-.092,6.433,2.423,13.656,3.257,23.437Z" fill="#12372A"></path>
          <path d="m267.488,170.375c-.139,0-.259-.107-.271-.249l-3.623-41.44c-.013-.15.098-.282.247-.295.153-.017.282.098.295.248l3.623,41.44c.013.15-.098.282-.247.295-.009,0-.016.001-.024.001Z" fill="#0c0c0c"></path>
          <g id="b_4_ha">
            <path d="m274.422,194.445l13.131-10.654-2.21.625c-1.484.356-3.08-.437-3.513-1.9-.462-1.561.482-3.169,2.044-3.544l27.586-6.71,2.373,8.787c1.508,5.583-.522,11.523-5.132,15.014l-10.222,7.713c-1.086.823-2.639.842-3.651-.069-.978-.881-1.177-2.202-.701-3.266-.042-.015-.084-.035-.115-.072-.059-.069-.072-.16-.049-.242l-1.883,1.426c-1.216.921-2.997.836-3.98-.331-.906-1.075-.865-2.603-.011-3.624-.031-.004-.056-.015-.084-.029l-.774.586c-1.086.823-2.639.842-3.651-.07-1.185-1.067-1.231-2.78-.312-3.899-.011-.016-.021-.033-.028-.051l-5.468,4.437c-1.14.925-2.814.751-3.739-.39-.925-1.14-.751-2.814.389-3.739Z" fill="#ff9e85"></path>
            <path id="b_4_ha_sh" d="m283.574,194.294c.028-.01.055-.025.08-.046l5.261-4.371c.112-.093.128-.26.034-.373-.093-.112-.26-.127-.373-.034l-5.261,4.371c-.112.093-.128.26-.034.373.073.088.191.117.293.08Z" fill="#0a0a0a" opacity=".2"></path>
            <path id="b_4_ha_sh-2" data-name="b_4_ha_sh" d="m288.211,197.595c.028-.01.054-.025.078-.044l4.162-3.403c.113-.093.13-.259.038-.372-.093-.113-.259-.131-.372-.038l-4.162,3.403c-.113.093-.13.259-.038.372.073.089.192.118.294.082Z" fill="#0a0a0a" opacity=".2"></path>
            <path id="b_4_ha_sh-3" data-name="b_4_ha_sh" d="m294.303,200.448c.029-.011.058-.027.083-.048l1.928-1.653c.111-.095.124-.262.029-.373-.095-.112-.262-.125-.373-.029l-1.928,1.653c-.111.095-.124.262-.029.373.074.086.19.113.291.077Z" fill="#0a0a0a" opacity=".2"></path>
          </g>
          <path d="m390.479,168.351l-.101-.447-17.454-77.205-34.533,7.807,13.624,60.263-54.578,13.413,6.717,30.796,72.73-13.874c.166-.032.405-.082.571-.119,9.294-2.101,15.125-11.339,13.024-20.633Z" fill="#12372A"></path>
          <path d="m297.171,172.238c-.03-.144.059-.286.202-.32l54.333-13.343-8.835-39.019c-.034-.147.059-.293.205-.326.147-.034.293.059.326.206l8.894,39.28c.033.145-.056.289-.201.324l-54.337,13.344s.364,1.588.467,2.121c.034.175-.136.266-.197.281-.066.016-.274.037-.329-.22-.125-.583-.528-2.328-.528-2.328Z" fill="#0c0c0c"></path>
          <g>
            <path d="m299.301,215.241l-20.984-64.503c-.756-2.325-2.924-3.899-5.369-3.899h-85.489c-3.836,0-6.556,3.744-5.369,7.392l20.984,64.503c.756,2.325,2.924,3.899,5.369,3.899h85.489c3.836,0,6.556-3.744,5.369-7.392Z" fill="#292a2e"></path>
            <path d="m299.301,215.241l-20.984-64.503c-.756-2.325-2.924-3.899-5.369-3.899h-85.489c-3.836,0-6.556,3.744-5.369,7.392l20.984,64.503c.756,2.325,2.924,3.899,5.369,3.899h85.489c3.836,0,6.556-3.744,5.369-7.392Z" fill="#fff" opacity=".2"></path>
            <circle cx="238.233" cy="184.736" r="8.966" fill="#fff"></circle>
          </g>
        </g>
      </g>
    </g>
  </g>
</svg>