<svg id="Layer_2" data-name="Layer 2" xmlns="http://www.w3.org/2000/svg" viewBox="0 0 713.721 862.214" style="width: 100%; height: 100%;">
  <g id="Layer_2-2" data-name="Layer 2">
    <g>
      <g>
        <g>
          <rect x="61.51" y="1.095" width="651.115" height="527.262" rx="34.903" ry="34.903" fill="#fff"></rect>
          <path d="m677.722,529.453H96.413c-19.85,0-35.999-16.149-35.999-35.999V35.999C60.415,16.149,76.564,0,96.413,0h581.309c19.85,0,35.999,16.149,35.999,35.999v457.456c0,19.85-16.149,35.999-35.999,35.999ZM96.413,2.191c-18.642,0-33.808,15.166-33.808,33.808v457.456c0,18.642,15.166,33.808,33.808,33.808h581.309c18.642,0,33.808-15.166,33.808-33.808V35.999c0-18.642-15.166-33.808-33.808-33.808H96.413Z" fill="#292a2e"></path>
        </g>
        <rect x="612.279" y="95.882" width="62.937" height="62.937" rx="13.622" ry="13.622" fill="#436850" opacity=".2"></rect>
        <rect x="613.524" y="175.379" width="62.937" height="62.937" rx="13.759" ry="13.759" fill="#436850" opacity=".2"></rect>
        <rect x="613.524" y="263.919" width="62.937" height="62.937" rx="13.759" ry="13.759" fill="#436850" opacity=".2"></rect>
        <rect x="612.279" y="347.929" width="62.937" height="62.937" rx="13.759" ry="13.759" fill="#436850" opacity=".2"></rect>
        <g fill="none" opacity=".15">
          <rect x="355.639" y="95.882" width="62.937" height="62.937" rx="13.622" ry="13.622" fill="#436850"></rect>
          <rect x="270.092" y="95.882" width="62.937" height="62.937" rx="13.622" ry="13.622" fill="#436850"></rect>
          <rect x="185.79" y="95.882" width="62.937" height="62.937" rx="13.622" ry="13.622" fill="#436850"></rect>
          <rect x="100.243" y="95.882" width="62.937" height="62.937" rx="13.622" ry="13.622" fill="#436850"></rect>
          <rect x="441.185" y="95.882" width="62.937" height="62.937" rx="13.622" ry="13.622" fill="#436850"></rect>
          <rect x="526.732" y="95.882" width="62.937" height="62.937" rx="13.622" ry="13.622" fill="#436850"></rect>
          <rect x="356.883" y="175.379" width="62.937" height="62.937" rx="13.759" ry="13.759" fill="#436850"></rect>
          <rect x="442.43" y="175.379" width="62.937" height="62.937" rx="13.759" ry="13.759" fill="#436850"></rect>
          <rect x="527.977" y="175.379" width="62.937" height="62.937" rx="13.759" ry="13.759" fill="#436850"></rect>
          <rect x="100.243" y="175.379" width="62.937" height="62.937" rx="13.759" ry="13.759" fill="#436850"></rect>
          <rect x="185.79" y="175.379" width="62.937" height="62.937" rx="13.759" ry="13.759" fill="#436850"></rect>
          <rect x="271.336" y="175.379" width="62.937" height="62.937" rx="13.759" ry="13.759" fill="#436850"></rect>
          <rect x="356.883" y="263.919" width="62.937" height="62.937" rx="13.759" ry="13.759" fill="#436850"></rect>
          <rect x="442.43" y="263.919" width="62.937" height="62.937" rx="13.759" ry="13.759" fill="#436850"></rect>
          <rect x="527.977" y="263.919" width="62.937" height="62.937" rx="13.759" ry="13.759" fill="#436850"></rect>
          <rect x="100.243" y="263.919" width="62.937" height="62.937" rx="13.759" ry="13.759" fill="#436850"></rect>
          <rect x="185.79" y="263.919" width="62.937" height="62.937" rx="13.759" ry="13.759" fill="#436850"></rect>
          <rect x="271.336" y="263.919" width="62.937" height="62.937" rx="13.759" ry="13.759" fill="#436850"></rect>
          <rect x="356.883" y="349.173" width="62.937" height="62.937" rx="13.759" ry="13.759" fill="#436850"></rect>
          <rect x="441.185" y="347.929" width="62.937" height="62.937" rx="13.759" ry="13.759" fill="#436850"></rect>
          <rect x="526.732" y="347.929" width="62.937" height="62.937" rx="13.759" ry="13.759" fill="#436850"></rect>
          <rect x="100.243" y="349.173" width="62.937" height="62.937" rx="13.759" ry="13.759" fill="#436850"></rect>
          <rect x="185.79" y="349.173" width="62.937" height="62.937" rx="13.759" ry="13.759" fill="#436850"></rect>
          <rect x="271.336" y="349.173" width="62.937" height="62.937" rx="13.759" ry="13.759" fill="#436850"></rect>
          <rect x="355.639" y="426.394" width="62.937" height="62.937" rx="13.759" ry="13.759" fill="#436850"></rect>
          <rect x="98.998" y="426.394" width="62.937" height="62.937" rx="13.759" ry="13.759" fill="#436850"></rect>
          <rect x="184.545" y="426.394" width="62.937" height="62.937" rx="13.759" ry="13.759" fill="#436850"></rect>
          <rect x="270.092" y="426.394" width="62.937" height="62.937" rx="13.759" ry="13.759" fill="#436850"></rect>
        </g>
        <path d="m712.625,36.002v22.375H61.513v-22.375c0-19.282,15.619-34.91,34.901-34.91h581.31c19.272,0,34.901,15.629,34.901,34.91Z" fill="#292a2e"></path>
        <rect x="277.054" y="433.356" width="49.013" height="49.013" rx="7.591" ry="7.591" fill="#fff"></rect>
        <g>
          <path d="m145.714,329.942l-41.768-7.559c-2.465-.446-4.102-2.806-3.656-5.272l6.459-35.691,12.856-8.56,35.283,6.385c2.465.446,4.102,2.806,3.656,5.272l-7.559,41.768c-.446,2.465-2.806,4.102-5.272,3.656Z" fill="#436850"></path>
          <polygon points="119.605 272.861 106.749 281.421 117.728 283.598 119.605 272.861" fill="#fffffa" opacity=".29"></polygon>
          <g fill="none" opacity=".88">
            <path d="m148.979,305.589c-.042,0-.084-.003-.127-.01l-39.084-7.228c-.344-.064-.571-.394-.508-.738.064-.344.395-.572.738-.508l39.084,7.228c.344.064.571.394.508.738-.056.301-.316.513-.611.518Z" fill="#fff"></path>
            <path d="m147.578,313.787c-.042,0-.084-.003-.127-.01l-39.084-7.228c-.344-.064-.571-.394-.508-.738.064-.344.394-.572.738-.508l39.084,7.228c.344.064.571.394.508.738-.056.301-.316.513-.611.518Z" fill="#fff"></path>
            <path d="m124.647,317.122c-.042,0-.084-.003-.127-.01l-17.336-3.206c-.344-.064-.571-.394-.508-.738.064-.344.394-.572.738-.508l17.336,3.206c.344.064.571.394.508.738-.056.301-.316.513-.611.518Z" fill="#fff"></path>
          </g>
          <path d="m149.165,298.927c-.152,0-.306-.014-.46-.042l-8.458-1.542c-.679-.124-1.268-.505-1.659-1.073-.391-.568-.536-1.255-.409-1.933l1.421-8.98c.259-1.387,1.586-2.317,2.966-2.077l8.482,1.45c.686.117,1.282.496,1.679,1.067.396.569.544,1.258.417,1.939l-1.447,9.079c-.234,1.245-1.32,2.112-2.533,2.112Zm-7.03-14.684c-.743,0-1.409.532-1.55,1.284l-1.421,8.98c-.08.429.009.849.248,1.196.239.348.599.581,1.015.657l8.458,1.542c.845.151,1.669-.41,1.829-1.258l1.448-9.085c.079-.418-.012-.841-.255-1.19-.243-.349-.607-.581-1.027-.653l-8.482-1.45c-.088-.015-.176-.022-.263-.022Z" fill="#fff"></path>
        </g>
        <path d="m291.504,474.04c-.088,0-.177-.004-.266-.012-.823-.075-1.577-.492-2.077-1.15l-8.885-11.686c-.984-1.294-.733-3.141.562-4.124,1.294-.984,3.141-.733,4.124.562l6.936,9.123,26.619-24.297c1.201-1.096,3.063-1.011,4.158.19,1.096,1.201,1.011,3.063-.19,4.158l-28.998,26.467c-.545.497-1.253.77-1.984.77Z" fill="#436850"></path>
        <g>
          <path d="m678.494,136.863l-35.207,23.709c-2.078,1.399-4.897.849-6.297-1.229l-20.26-30.085,3.245-15.1,29.741-20.028c2.078-1.399,4.897-.849,6.297,1.229l23.709,35.207c1.399,2.078.849,4.897-1.229,6.297Z" fill="#12372A"></path>
          <polygon points="619.975 114.158 616.73 129.259 626.117 123.163 619.975 114.158" fill="#fffffa" opacity=".29"></polygon>
          <g fill="none" opacity=".88">
            <path d="m663.852,117.131c-.029.03-.062.057-.098.081l-33.053,22.074c-.291.194-.684.116-.878-.175-.194-.291-.116-.685.175-.878l33.053-22.074c.291-.194.684-.116.878.175.17.255.131.588-.077.797Z" fill="#fff"></path>
            <path d="m668.564,123.984c-.029.03-.062.057-.098.081l-33.053,22.074c-.291.194-.684.116-.878-.175-.194-.291-.117-.685.175-.878l33.053-22.074c.291-.194.684-.116.878.175.17.255.131.588-.077.797Z" fill="#fff"></path>
            <path d="m654.455,142.365c-.029.03-.062.057-.098.081l-14.661,9.791c-.291.194-.684.116-.878-.175-.194-.291-.117-.685.175-.878l14.661-9.791c.291-.194.684-.116.878.175.17.255.131.588-.077.797Z" fill="#fff"></path>
          </g>
        </g>
      </g>
      <path d="m686.558,862.214H36.139c-.388,0-.702-.314-.702-.702s.314-.702.702-.702h650.419c.388,0,.702.314.702.702s-.314.702-.702.702Z" fill="#292a2e"></path>
      <g>
        <g>
          <path d="m568.058,818.043s-4.515,23.404-26.428,24.708c-21.913,1.304-17.161,18.761-17.161,18.761h83.739v-41.837l-40.15-1.632Z" fill="#436850"></path>
          <path d="m593.887,391.112s-.263-7.036-.207,8.924c.207,59.529,3.24,127.525,5.764,167.315,4.057,63.964,12.459,265.628,12.459,265.628l-59.026-.462-49.333-443.823,90.342,2.419Z" fill="#262626"></path>
          <path d="m530.573,462.093s-2.28,43.2-2.703,53.341c-.978,23.455-1.854,47.892-1.854,75.426l-8.138-72.333s6.347-22.621,12.695-56.434Z" fill="#0a0a0a"></path>
          <path d="m460.096,818.043s-4.515,23.404-26.428,24.708c-21.913,1.304-17.161,18.761-17.161,18.761h83.739v-41.837s-40.15-1.632-40.15-1.632Z" fill="#436850"></path>
          <path d="m443.453,395.735s-5.874,205.456-5.16,215.4l8.464,220.303,60.117,1,4.726-231.343s.72-63.816,16.139-123.073c7.912-30.406,12.613-61.557,14.168-92.938h0s-98.454,10.651-98.454,10.651Z" fill="#262626"></path>
        </g>
        <path d="m594.484,391.106l.18.01s-.13-3.47-.18-.01Z" fill="#333"></path>
        <g>
          <g>
            <path id="sk" d="m480.242,216.089c.178-.023,2.158,32.824,40.317,29.96,26.417-1.979,35.836-30.006,36.441-30.006-2.848-.605-7.644-1.486-8.909-2.161-4.16-2.235-10.085-4.561-11.425-12.639-.773-4.656.538-28.475.135-33.186l-39.772,9.051c.567,9.949,4.532,33.013-9.367,37.096-2.313.675-4.804,1.296-7.419,1.886Z" fill="#ff9e85"></path>
            <g>
              <path d="m498.147,192.625c16.014,1.236,36.571-5.56,40.442-26.929l3.492-19.282c3.871-21.369-4.216-40.726-24.336-44.37h0c-20.12-3.644-38.297,10.955-42.168,32.325l-1.546,8.536c-.318,1.757-.705,4.944-.835,8.888-.259,7.869-.622,19.839,3.272,28.632,3.676,8.301,11.447,11.41,21.678,12.2Z" fill="#ff9e85"></path>
              <path d="m534.06,100.95c-5.125-1.673-12.375-3.096-19.606-3.336-.645-2.54-2.082-4.514-4.195-5.34-3.518-1.374-7.816.839-10.675,5.105-1.59-2.437-3.744-4.632-6.599-5.521-7.877-2.453-8.268,8.863-8.268,8.863,0,0-12.489-12.324-12.879,3.394-.472,19.018,3.022,24.596,5.571,26.004,5.035,2.781,8.785,2.31,10.778,6.401,6.034,12.388.12,47.282,7.102,51.651,10.697,6.693,32.608,6.924,39.725,6.416,2.737-.196,5.298-3.368,6.45-5.858,3.722-8.039,12.023-26.262,14.334-33.799,4.264-13.909,3.942-45.595-21.737-53.98Z" fill="#0c0c0c"></path>
              <path d="m490.508,175.705c6.178-.671,10.468-7.823,9.798-14.001-.671-6.178-6.048-9.041-12.226-8.37l-2.734,4.485-.149,18.463,5.311-.577Z" fill="#ff9e85"></path>
            </g>
          </g>
          <path d="m435.707,282.804c1.135,13.332,6.655,96.51,7.746,112.931h150.372c.849-14.811,4.664-79.575,7.885-108.539,3.075-27.638,9.108-41.475,4.686-49.646-7.226-13.354-26.972-21.071-40.436-22.894-8.222-1.113-20.587-1.911-20.587-1.911,0,0-57.729,0-57.897,0-5.506,0-37.565,2.589-44.653,8.046-12.396,9.545-9.525,33.759-7.116,62.012Z" fill="#436850"></path>
          <path d="m433.631,266.098c-.263,0-.483-.206-.499-.471l-1.213-21.171c-.016-.276.195-.512.47-.528.271-.012.512.195.528.47l1.213,21.171c.016.276-.195.512-.47.528-.01,0-.02,0-.029,0Z" fill="#0c0c0c"></path>
          <path d="m626.335,394.863c8.397,0,16.401-3.854,21.635-10.558,5.849-7.491,7.408-17.475,4.12-26.393-1.553-4.213-37.973-100.656-44.906-118.526l-51.339,20.802c3.898,10.048,18.023,48.132,29.37,78.811l-18.852-2.049-5.934,54.585,62.935,3.167c.993.108,1.985.161,2.971.161Z" fill="#436850"></path>
          <rect x="541.669" y="341.253" width="108.028" height="1" transform="translate(233.762 925.402) rotate(-88.04)" fill="#0c0c0c"></rect>
          <g>
            <g>
              <path d="m325.809,172.602l-45.526,20.08c-2.053.905-4.451-.025-5.356-2.078l-16.862-38.231,6.581-16.057,37.805-16.674c2.053-.905,4.451.025,5.356,2.078l20.08,45.526c.905,2.053-.025,4.451-2.078,5.356Z" fill="#12372A"></path>
              <polygon points="264.646 136.317 258.065 152.373 269.654 147.492 264.646 136.317" fill="#fffffa" opacity=".29"></polygon>
              <g fill="none" opacity=".88">
                <path d="m309.12,140.559c-.038.027-.08.051-.125.07l-40.926,17.864c-.36.157-.78-.007-.937-.367-.157-.36.009-.779.367-.937l40.926-17.864c.36-.157.78.007.937.367.138.315.028.676-.243.867Z" fill="#fff"></path>
                <path d="m312.58,148.297c-.038.027-.08.051-.125.07l-40.926,17.864c-.36.157-.78-.007-.937-.367-.157-.36.007-.781.367-.937l40.926-17.864c.36-.157.78.007.937.367.138.315.028.676-.243.867Z" fill="#fff"></path>
                <path d="m316.433,156.809c-.038.027-.08.051-.125.07l-40.926,17.864c-.36.157-.78-.007-.937-.367-.157-.36.006-.781.367-.937l40.926-17.864c.36-.157.78.007.937.367.138.315.028.676-.243.867Z" fill="#fff"></path>
                <path d="m297.189,174.342c-.038.027-.08.051-.125.07l-18.153,7.923c-.36.157-.78-.007-.937-.367-.157-.36.007-.78.367-.937l18.153-7.923c.36-.157.78.007.937.367.138.315.028.676-.243.867Z" fill="#fff"></path>
              </g>
            </g>
            <path d="m288.182,169.111c-.871-2.311-3.505-3.442-5.797-2.439-2.149.941-3.052,3.528-2.225,5.723l1.442,5.97c.631,2.614-.787,5.287-3.306,6.23h0c-2.465.923-5.233-.096-6.513-2.395,0,0-8.979-18.967-9.149-19.739-1.472,1.437-4.041,4.971-4.568,7.637-.019.014,2.6,21.297,4.063,22.797l15.192,23.43c6.209,6.363,27.055-4.224,27.055-4.224l-16.193-42.989Z" fill="#ff9e85"></path>
          </g>
          <path d="m350.596,344.058c-2.231,0-4.472-.253-6.681-.767-7.771-1.807-14.479-6.685-18.593-13.52l-65.389-108.629,50.549-30.428,49.709,82.581,82.631-52.504,35.009,46.94-111.267,71.63c-4.802,3.091-10.353,4.695-15.97,4.695Z" fill="#436850"></path>
          <path d="m436.545,294.787c-.181,0-.355-.099-.444-.271-.127-.246-.03-.547.215-.674l14.278-7.367c.246-.126.548-.03.674.215.127.246.03.547-.215.674l-14.278,7.367c-.073.038-.152.056-.229.056Z" fill="#0c0c0c"></path>
          <path d="m479.501,215.862l7.088-11.081c.631-.986,1.721-1.583,2.892-1.583h53.432c.973,0,1.901.413,2.552,1.136l10.379,11.528h-76.344Z" fill="#436850"></path>
        </g>
      </g>
      <g>
        <rect x="75.712" y="659.194" width="1.737" height="195.977" transform="translate(-81.915 12.824) rotate(-6.245)" fill="#292a2e"></rect>
        <rect x="65.475" y="795.824" width="104.283" height="1.737" transform="translate(-686.865 833.592) rotate(-84.228)" fill="#292a2e"></rect>
        <rect x="62.212" y="835.943" width="77.82" height="25.255" fill="#292a2e"></rect>
        <rect x="62.212" y="835.943" width="77.82" height="25.255" fill="#fff" opacity=".2"></rect>
        <ellipse cx="144.556" cy="757.55" rx="44.397" ry="53.048" transform="translate(-547.695 417.597) rotate(-53.042)" fill="#12372A"></ellipse>
        <ellipse cx="144.556" cy="757.55" rx="44.397" ry="53.048" transform="translate(-547.695 417.597) rotate(-53.042)" fill="#fff" opacity=".2"></ellipse>
        <path d="m186.943,789.444c-1.003,1.337-2.083,2.588-3.233,3.746-16.228,10.368-40.18,8.736-59.183-5.565-23.409-17.611-30.435-47.774-15.691-67.366,1.003-1.337,2.083-2.58,3.225-3.746,16.235-10.375,40.181-8.736,59.191,5.557,23.409,17.619,30.434,47.781,15.691,67.374Z" fill="#fff" opacity=".5"></path>
        <ellipse cx="50.43" cy="678.94" rx="53.048" ry="45.682" transform="translate(-404.356 172.312) rotate(-37.665)" fill="#12372A"></ellipse>
        <path d="m70.995,709.969c-17.961,13.873-40.787,15.987-57.333,6.956-1.889-1.663-3.637-3.521-5.223-5.572-15.419-19.966-9.116-50.672,14.075-68.571,17.961-13.865,40.787-15.987,57.325-6.964,1.896,1.663,3.645,3.528,5.23,5.58,15.419,19.966,9.116,50.672-14.075,68.571Z" fill="#fff" opacity=".2"></path>
      </g>
    </g>
  </g>
</svg>